<svg width="530" height="530" viewBox="0 0 530 530" fill="none" xmlns="http://www.w3.org/2000/svg">
<path d="M204.271 287.084C204.271 311.486 184.506 331.25 160.104 331.25C135.702 331.25 115.938 311.486 115.938 287.084C115.938 262.682 135.702 242.917 160.104 242.917C184.506 242.917 204.271 262.682 204.271 287.084Z" fill="#F0F4F9"/>
<path fill-rule="evenodd" clip-rule="evenodd" d="M160.104 309.167C172.31 309.167 182.188 299.289 182.188 287.084C182.188 274.878 172.31 265 160.104 265C147.899 265 138.021 274.878 138.021 287.084C138.021 299.289 147.899 309.167 160.104 309.167ZM160.104 331.25C184.506 331.25 204.271 311.486 204.271 287.084C204.271 262.682 184.506 242.917 160.104 242.917C135.702 242.917 115.938 262.682 115.938 287.084C115.938 311.486 135.702 331.25 160.104 331.25Z" fill="#F0F4F9"/>
<path d="M66.25 403.523C66.25 370.146 128.78 353.333 160.104 353.333C191.428 353.333 253.958 370.146 253.958 403.523V463.75H66.25V403.523Z" fill="#F0F4F9"/>
<path fill-rule="evenodd" clip-rule="evenodd" d="M92.0235 397.316C88.535 400.759 88.3333 402.735 88.3333 403.523V441.666H231.875V403.523C231.875 402.735 231.673 400.759 228.185 397.316C224.502 393.681 218.42 389.783 210.081 386.211C193.304 379.023 172.802 375.416 160.104 375.416C147.406 375.416 126.904 379.023 110.128 386.211C101.789 389.783 95.7056 393.681 92.0235 397.316ZM160.104 353.333C128.78 353.333 66.25 370.146 66.25 403.523V463.75H253.958V403.523C253.958 370.146 191.428 353.333 160.104 353.333Z" fill="#F0F4F9"/>
<path d="M414.062 287.084C414.062 311.486 394.298 331.25 369.896 331.25C345.494 331.25 325.729 311.486 325.729 287.084C325.729 262.682 345.494 242.917 369.896 242.917C394.298 242.917 414.062 262.682 414.062 287.084Z" fill="#F0F4F9"/>
<path fill-rule="evenodd" clip-rule="evenodd" d="M369.896 309.167C382.101 309.167 391.979 299.289 391.979 287.084C391.979 274.878 382.101 265 369.896 265C357.69 265 347.812 274.878 347.812 287.084C347.812 299.289 357.69 309.167 369.896 309.167ZM369.896 331.25C394.298 331.25 414.062 311.486 414.062 287.084C414.062 262.682 394.298 242.917 369.896 242.917C345.494 242.917 325.729 262.682 325.729 287.084C325.729 311.486 345.494 331.25 369.896 331.25Z" fill="#F0F4F9"/>
<path d="M309.167 265C309.167 289.402 289.402 309.166 265 309.166C240.598 309.166 220.833 289.402 220.833 265C220.833 240.598 240.598 220.833 265 220.833C289.402 220.833 309.167 240.598 309.167 265Z" fill="#F0F4F9"/>
<path fill-rule="evenodd" clip-rule="evenodd" d="M265 287.083C277.205 287.083 287.083 277.205 287.083 265C287.083 252.794 277.205 242.916 265 242.916C252.795 242.916 242.917 252.794 242.917 265C242.917 277.205 252.795 287.083 265 287.083ZM265 309.166C289.402 309.166 309.167 289.402 309.167 265C309.167 240.598 289.402 220.833 265 220.833C240.598 220.833 220.833 240.598 220.833 265C220.833 289.402 240.598 309.166 265 309.166Z" fill="#F0F4F9"/>
<path d="M253.958 141.701C253.958 112.227 230.064 88.333 200.591 88.333H165.606C135.126 88.333 110.417 113.042 110.417 143.523C110.417 173.222 133.92 197.597 163.601 198.676L165.625 198.75V220.833C165.625 220.833 253.958 207.951 253.958 141.701Z" fill="#F0F4F9"/>
<path d="M287.083 124.065C287.083 92.1349 312.968 66.25 344.899 66.25H408.542C439.032 66.25 463.75 90.9677 463.75 121.458C463.75 151.949 439.032 176.667 408.542 176.667H386.458V209.792C386.458 209.792 287.083 195.836 287.083 124.065Z" fill="#F0F4F9"/>
<path d="M276.042 403.523C276.042 370.146 338.572 353.333 369.896 353.333C401.22 353.333 463.75 370.146 463.75 403.523V463.75H276.042V403.523Z" fill="#F0F4F9"/>
<path fill-rule="evenodd" clip-rule="evenodd" d="M301.815 397.316C298.327 400.759 298.125 402.735 298.125 403.523V441.666H441.667V403.523C441.667 402.735 441.465 400.759 437.976 397.316C434.294 393.681 428.211 389.783 419.873 386.211C403.096 379.023 382.594 375.416 369.896 375.416C357.198 375.416 336.696 379.023 319.919 386.211C311.58 389.783 305.497 393.681 301.815 397.316ZM369.896 353.333C338.572 353.333 276.042 370.146 276.042 403.523V463.75H463.75V403.523C463.75 370.146 401.22 353.333 369.896 353.333Z" fill="#F0F4F9"/>
<path fill-rule="evenodd" clip-rule="evenodd" d="M265.001 386.458V381.44C265.001 362.914 244.603 349.491 220.779 341.214C233.017 335.478 247.961 331.25 265.001 331.25C282.042 331.25 296.986 335.478 309.223 341.214C285.4 349.491 265.001 362.914 265.001 381.44V386.458Z" fill="#F0F4F9"/>
<path fill-rule="evenodd" clip-rule="evenodd" d="M265.001 386.458V381.44C265.001 371.57 270.791 363.148 279.804 356.182C280.313 355.789 280.831 355.4 281.359 355.017C289.047 349.435 298.807 344.832 309.223 341.214C299.807 336.801 288.789 333.279 276.447 331.89C272.748 331.475 268.93 331.25 265.001 331.25C261.073 331.25 257.254 331.475 253.555 331.89C241.213 333.279 230.196 336.801 220.779 341.214C231.195 344.832 240.956 349.435 248.643 355.017C249.172 355.4 249.69 355.789 250.199 356.182C259.211 363.148 265.001 371.57 265.001 381.44V386.458Z" fill="#F0F4F9"/>
</svg>
