<svg width="50" height="50" viewBox="0 0 50 50" fill="none" xmlns="http://www.w3.org/2000/svg">
<path d="M47.309 13.6678C47.6301 12.6025 47.309 11.8184 45.7638 11.8184H40.651C39.3489 11.8184 38.7499 12.4917 38.4288 13.2417C38.4288 13.2417 35.8246 19.4718 32.144 23.5115C30.9548 24.6792 30.4079 25.0542 29.7569 25.0542C29.4357 25.0542 28.9409 24.6792 28.9409 23.6138V13.6678C28.9409 12.3894 28.5763 11.8184 27.4999 11.8184H19.4617C18.6458 11.8184 18.1596 12.415 18.1596 12.9689C18.1596 14.1792 19.9999 14.4604 20.1909 17.8695V25.2672C20.1909 26.8865 19.8958 27.1848 19.2447 27.1848C17.5086 27.1848 13.2899 20.9292 10.7899 13.7701C10.2864 12.3809 9.79159 11.8184 8.48082 11.8184H3.36797C1.90964 11.8184 1.6145 12.4917 1.6145 13.2417C1.6145 14.5712 3.35061 21.1763 9.6961 29.9036C13.9235 35.861 19.8784 39.0911 25.2951 39.0911C28.5503 39.0911 28.9496 38.3752 28.9496 37.1394C28.9496 31.4462 28.6544 30.9093 30.2864 30.9093C31.0416 30.9093 32.3437 31.2843 35.3819 34.1564C38.8541 37.5655 39.427 39.0911 41.3715 39.0911H46.4843C47.9426 39.0911 48.6805 38.3752 48.2551 36.9604C47.2829 33.986 40.7117 27.8667 40.4166 27.4576C39.6614 26.503 39.8784 26.0769 40.4166 25.2246C40.4253 25.2161 46.6666 16.5911 47.309 13.6678Z" fill="#758AD6"/>
</svg>
