<svg width="10" height="6" viewBox="0 0 10 6" fill="none" xmlns="http://www.w3.org/2000/svg">
<path fill-rule="evenodd" clip-rule="evenodd" d="M9.0242 0.175672C9.13668 0.288189 9.19987 0.440773 9.19987 0.599872C9.19987 0.75897 9.13668 0.911555 9.0242 1.02407L4.2242 5.82407C4.11168 5.93656 3.9591 5.99974 3.8 5.99974C3.6409 5.99974 3.48832 5.93656 3.3758 5.82407L0.9758 3.42407C0.866505 3.31091 0.806029 3.15935 0.807396 3.00203C0.808763 2.84471 0.871864 2.69423 0.983109 2.58298C1.09435 2.47174 1.24484 2.40863 1.40216 2.40727C1.55948 2.4059 1.71104 2.46638 1.8242 2.57567L3.8 4.55147L8.1758 0.175672C8.28832 0.0631893 8.4409 0 8.6 0C8.7591 0 8.91168 0.0631893 9.0242 0.175672Z" fill="#758AD6"/>
</svg>
