<svg width="30" height="30" viewBox="0 0 30 30" fill="none" xmlns="http://www.w3.org/2000/svg">
<path d="M11.875 9.375V11.25H10V12.5H11.875V14.375H13.125V12.5H15V11.25H13.125V9.375H11.875Z" fill="#333333"/>
<path d="M10.625 16.25C10.2798 16.25 10 16.5298 10 16.875C10 17.2202 10.2798 17.5 10.625 17.5H19.375C19.7202 17.5 20 17.2202 20 16.875C20 16.5298 19.7202 16.25 19.375 16.25H10.625Z" fill="#333333"/>
<path d="M10 20C10 19.6548 10.2798 19.375 10.625 19.375H19.375C19.7202 19.375 20 19.6548 20 20C20 20.3452 19.7202 20.625 19.375 20.625H10.625C10.2798 20.625 10 20.3452 10 20Z" fill="#333333"/>
<path d="M10.625 22.5C10.2798 22.5 10 22.7798 10 23.125C10 23.4702 10.2798 23.75 10.625 23.75H19.375C19.7202 23.75 20 23.4702 20 23.125C20 22.7798 19.7202 22.5 19.375 22.5H10.625Z" fill="#333333"/>
<path fill-rule="evenodd" clip-rule="evenodd" d="M10.625 4.375C10.625 3.33947 11.4644 2.5 12.5 2.5H17.5C18.5356 2.5 19.375 3.33947 19.375 4.375H21.875C22.9106 4.375 23.75 5.21447 23.75 6.25V25.625C23.75 26.6606 22.9106 27.5 21.875 27.5H8.125C7.08944 27.5 6.25 26.6606 6.25 25.625V6.25C6.25 5.21447 7.08944 4.375 8.125 4.375H10.625ZM17.5 7.5C18.5356 7.5 19.375 6.66056 19.375 5.625H21.875C22.2202 5.625 22.5 5.90482 22.5 6.25V25.625C22.5 25.9702 22.2202 26.25 21.875 26.25H8.125C7.77981 26.25 7.5 25.9702 7.5 25.625V6.25C7.5 5.90482 7.77981 5.625 8.125 5.625H10.625C10.625 6.66056 11.4644 7.5 12.5 7.5H17.5ZM12.5 3.75C12.1548 3.75 11.875 4.02982 11.875 4.375V5.625C11.875 5.97018 12.1548 6.25 12.5 6.25H17.5C17.8452 6.25 18.125 5.97018 18.125 5.625V4.375C18.125 4.02982 17.8452 3.75 17.5 3.75H12.5Z" fill="#333333"/>
</svg>
