<svg width="30" height="30" viewBox="0 0 30 30" fill="none" xmlns="http://www.w3.org/2000/svg">
<path fill-rule="evenodd" clip-rule="evenodd" d="M20.0201 17.0313C19.7529 17.2501 19.4411 17.4038 19.1091 17.4822C19.1035 17.4835 19.098 17.4848 19.0925 17.4861C18.9305 17.5229 18.7639 17.542 18.5953 17.542H18.2381V18.3925H19.0925C19.4964 18.401 19.8975 18.4507 20.2898 18.5402C20.6724 18.6274 21.0466 18.7526 21.407 18.9144C22.1369 19.242 22.7955 19.7133 23.3447 20.3011C23.8939 20.8889 24.3227 21.5814 24.6063 22.3386C24.8899 23.0958 25.0226 23.9025 24.9969 24.7121V27H5V23.8616C5.03704 22.3957 5.63779 21.0028 6.67373 19.9807C7.70267 18.9655 9.0798 18.3964 10.5139 18.3925C10.5238 18.3924 10.5336 18.3924 10.5434 18.3925H11.5821V14.3887C10.6419 13.6438 9.95433 12.6194 9.61573 11.4586C9.27707 10.2978 9.3042 9.05864 9.69327 7.91425C10.0824 6.76986 10.8141 5.77748 11.786 5.07569C12.7579 4.3739 13.9217 3.99782 15.1145 4.00001C16.3471 4.00971 17.5445 4.41847 18.5323 5.16683C19.5201 5.91519 20.2467 6.96413 20.6063 8.16071C20.7223 8.60561 20.8513 9.91403 20.8513 9.91403C21.0575 10.4766 21.2767 11.0261 21.4958 11.5757L21.8052 12.3738C21.9199 12.5885 21.9981 12.8213 22.0365 13.0624C22.0367 13.0639 22.037 13.0656 22.0373 13.0673C22.0373 13.0675 22.0373 13.0678 22.0373 13.068C22.0455 13.229 21.9948 13.3874 21.895 13.5127C21.7951 13.6384 21.6529 13.722 21.4958 13.7476C21.4853 13.7476 21.4527 13.7509 21.4074 13.7555C21.2313 13.7731 20.8641 13.8101 20.8641 13.7476V15.2523C20.8607 15.8607 20.6202 16.4431 20.1951 16.8722C20.1392 16.9284 20.0808 16.9816 20.0201 17.0313ZM19.5308 15.2468C19.5289 15.4457 19.4504 15.6546 19.2839 15.8227C19.1137 15.9944 18.8674 16.1045 18.5952 16.1045H18.2381C17.5017 16.1045 16.9047 16.7481 16.9047 17.542V18.3925C16.9047 19.1863 17.5017 19.83 18.2381 19.83H19.0787C19.7069 19.8449 20.3241 19.9854 20.8945 20.2415C21.4686 20.4991 21.9814 20.8676 22.4053 21.3213C22.8291 21.7748 23.1555 22.3043 23.3699 22.8768C23.5843 23.4491 23.6836 24.0558 23.6643 24.6628C23.6638 24.6792 23.6635 24.6956 23.6635 24.7121V25.5625H6.33333V23.8827C6.3646 22.8269 6.79933 21.8054 7.57387 21.0412C8.35547 20.2701 9.419 19.827 10.5401 19.83H11.5821C12.3185 19.83 12.9155 19.1863 12.9155 18.3925V14.3887C12.9155 13.9313 12.7135 13.5012 12.3717 13.2303C11.6515 12.6599 11.1382 11.8863 10.8876 11.0273C10.6374 10.1697 10.6571 9.25608 10.9452 8.40904C11.2337 7.56055 11.7816 6.80896 12.5279 6.27004C13.2742 5.73126 14.1764 5.43657 15.1085 5.43751C16.0748 5.44592 17.0056 5.76713 17.7657 6.34299C18.5163 6.91174 19.0572 7.69503 19.3279 8.57097C19.3559 8.69373 19.4035 9.00811 19.4503 9.39185C19.4725 9.57363 19.4914 9.74318 19.5048 9.86774C19.5114 9.92977 19.5167 9.98015 19.5202 10.0147L19.5242 10.0538L19.5253 10.0655C19.5253 10.0656 19.5253 10.0655 19.5253 10.0655C19.5381 10.1947 19.567 10.3217 19.6113 10.4424C19.8248 11.0249 20.0505 11.5909 20.2674 12.1347L20.2682 12.1368L20.3743 12.4102C19.8803 12.6208 19.5308 13.1402 19.5308 13.7476V15.2468Z" fill="#333333"/>
<path d="M15 20C15 20.5523 14.7761 21 14.5 21C14.2239 21 14 20.5523 14 20C14 19.4477 14.2239 19 14.5 19C14.7761 19 15 19.4477 15 20Z" fill="#333333"/>
<path fill-rule="evenodd" clip-rule="evenodd" d="M14.5 21C14.7761 21 15 20.5523 15 20C15 19.4477 14.7761 19 14.5 19C14.2239 19 14 19.4477 14 20C14 20.5523 14.2239 21 14.5 21Z" fill="#333333"/>
<path d="M16 20C16 20.5523 15.7761 21 15.5 21C15.2239 21 15 20.5523 15 20C15 19.4477 15.2239 19 15.5 19C15.7761 19 16 19.4477 16 20Z" fill="#333333"/>
<path fill-rule="evenodd" clip-rule="evenodd" d="M15.5 21C15.7761 21 16 20.5523 16 20C16 19.4477 15.7761 19 15.5 19C15.2239 19 15 19.4477 15 20C15 20.5523 15.2239 21 15.5 21Z" fill="#333333"/>
<path fill-rule="evenodd" clip-rule="evenodd" d="M15 22C15.5523 22 16 22.3444 16 22.7692V26.2308C16 26.6556 15.5523 27 15 27C14.4477 27 14 26.6556 14 26.2308V22.7692C14 22.3444 14.4477 22 15 22Z" fill="#333333"/>
</svg>
