<svg width="30" height="30" viewBox="0 0 30 30" fill="none" xmlns="http://www.w3.org/2000/svg">
<path fill-rule="evenodd" clip-rule="evenodd" d="M18.2423 12.8713C18.2405 12.8732 18.2387 12.8752 18.2368 12.877C18.2368 12.8771 18.2363 12.8776 18.2368 12.877C18.2371 12.8768 18.2376 12.8763 18.2378 12.876L18.2398 12.8739L18.2411 12.8725L18.2423 12.8713ZM17.7141 12.4C17.1856 11.9291 17.1857 11.9289 17.1859 11.9287L17.1873 11.9272L17.1894 11.9251L17.1942 11.92L17.2069 11.9068C17.2168 11.8968 17.2294 11.8842 17.2449 11.8694C17.2756 11.8399 17.3174 11.8017 17.3702 11.7577C17.4753 11.67 17.6258 11.5576 17.8194 11.4463C18.2071 11.2234 18.7772 11 19.4999 11C20.8011 11 22 12.0576 22 13.835C22 15.328 21.3171 16.3784 20.5358 17.0416C20.1506 17.3686 19.7415 17.6025 19.3757 17.7563C19.0266 17.903 18.6614 18 18.3635 18C17.969 18 17.6492 17.6866 17.6492 17.3C17.6492 16.9134 17.969 16.6 18.3635 16.6C18.3633 16.6 18.3633 16.6 18.3635 16.6C18.365 16.5999 18.3766 16.5995 18.3994 16.5962C18.4248 16.5926 18.4586 16.5861 18.5006 16.5758C18.5849 16.5549 18.6914 16.5206 18.8124 16.4697C19.0553 16.3675 19.3362 16.2076 19.6004 15.9834C20.1178 15.5441 20.5714 14.862 20.5714 13.835C20.5714 12.7424 19.9248 12.4 19.4999 12.4C19.0862 12.4 18.7634 12.5266 18.5423 12.6537C18.4315 12.7174 18.3486 12.78 18.2965 12.8236C18.2706 12.8452 18.2528 12.8616 18.2436 12.8704L18.2368 12.877C17.9708 13.1572 17.5234 13.1762 17.2336 12.9179C16.9417 12.6579 16.9206 12.2147 17.1859 11.9287L17.7141 12.4Z" fill="#333333"/>
<path d="M12.2903 14.2816C9.06749 14.2816 7.71618 15.789 7 17.2353C7.27895 17.2547 7.71618 17.2353 7.71618 17.2353C7.71618 17.2353 9.46839 15.5 12 15.5C13.4613 15.5 14.9483 16.1107 15.5 16.9999C15.7644 17.4259 14.9913 18.0635 14.5 17.9411C13.2313 17.6253 10.3551 16.9936 8.43235 17.9411L8.5 18.9999C9.83252 18.2494 11.6648 18.1974 13 18.4999C14.2752 18.7889 15.5 19.7103 15.5 20.9999V24.9999L16.7267 25V18.4C16.7267 16.5025 17.4338 16.0457 18.7374 15.09C18.9927 14.9029 19.0722 14.5621 18.9299 14.2816C18.7113 13.8507 18.0937 13.7874 17.6815 14.0462C17.2818 14.2971 16.6596 15.4999 16 15.4999C15.1422 15.4999 14.3137 14.2816 12.2903 14.2816Z" fill="#333333"/>
<path fill-rule="evenodd" clip-rule="evenodd" d="M12.8571 22.6875C12.8571 21.8936 12.2176 21.25 11.4286 21.25H9.99999C9.77535 21.25 9.65542 21.2045 9.59692 21.1741C9.53728 21.1432 9.48921 21.1006 9.44506 21.039C9.39713 20.9721 9.35449 20.8823 9.32449 20.7765C9.29392 20.6687 9.28571 20.577 9.28571 20.5313V18.375C9.28571 17.6455 8.7427 17.0317 8.02263 16.9472L7.85713 18.375V20.5313C7.85713 21.25 8.2857 22.6875 9.99999 22.6875H11.4286V27H21.4286V21.2969C21.4286 19.9132 22.1414 18.6572 23.0415 17.6111C23.7536 16.7834 24.3066 15.8385 24.6279 14.827C25.1629 13.142 25.1201 11.3432 24.5053 9.68202C23.8905 8.02077 22.7344 6.58018 21.1987 5.56143C19.663 4.54274 17.8244 3.99684 15.9396 4.00001C13.9921 4.01403 12.1001 4.60743 10.5394 5.69382C8.97863 6.78014 7.83056 8.30274 7.26242 10.0398C7.07906 10.6855 6.87535 12.5848 6.87535 12.5848C6.54949 13.4015 6.2032 14.1992 5.85692 14.997L5.36806 16.1555C5.18563 16.4693 5.06163 16.8096 5.00142 17.1621C4.98817 17.3962 5.0682 17.6265 5.22613 17.8088C5.38406 17.9912 5.60877 18.1126 5.85692 18.1497C5.93842 18.1497 7.85713 18.375 7.85713 18.375C8.02263 16.9472 8.0227 16.9472 8.02263 16.9472L7.72042 16.9118C7.53885 16.8907 7.29563 16.8625 7.0497 16.8341C6.9147 16.8187 6.77835 16.8031 6.65063 16.7887C6.66206 16.7652 6.67285 16.7414 6.68299 16.7174L7.16899 15.5655L7.16999 15.5633C7.51363 14.7716 7.86713 13.9573 8.20106 13.1205C8.24978 12.9983 8.28163 12.87 8.2957 12.7391L8.29578 12.7384L8.2977 12.7204L8.30413 12.6622C8.30985 12.6111 8.31821 12.537 8.32885 12.4457C8.3502 12.2627 8.38049 12.0131 8.41613 11.745C8.49056 11.185 8.5722 10.6761 8.62956 10.4581C9.09956 9.04485 10.0446 7.78603 11.3521 6.87602C12.6694 5.95918 14.2786 5.45031 15.946 5.43751C17.5563 5.43557 19.1179 5.9029 20.4124 6.76167C21.7069 7.62028 22.6624 8.8216 23.1665 10.1836C23.6699 11.5438 23.7045 13.0119 23.2671 14.3895C23.0116 15.1938 22.5631 15.971 21.9615 16.6702C20.9633 17.8303 20 19.413 20 21.2969V25.5625H12.8571V22.6875Z" fill="#333333"/>
</svg>
