<svg width="30" height="30" viewBox="0 0 30 30" fill="none" xmlns="http://www.w3.org/2000/svg">
<path fill-rule="evenodd" clip-rule="evenodd" d="M14.4207 18.7968C14.1863 18.8232 13.9481 18.8368 13.7066 18.8368H10V21.875C10 21.875 9.49631 21.773 8.75 21.4859C6.61644 20.665 2.5 18.3313 2.5 12.5434C2.5 9.06763 5.31765 6.25 8.79338 6.25H13.7066C16.739 6.25 19.2705 8.39469 19.8669 11.25H22.4655C25.2461 11.25 27.5003 13.5041 27.5003 16.2847C27.5003 20.8341 23.8576 22.7159 21.8753 23.4031C21.1343 23.66 20.6253 23.75 20.6253 23.75V21.3194H18.7849C17.0651 21.3194 15.5466 20.4571 14.6384 19.1411C14.5613 19.0295 14.4887 18.9146 14.4207 18.7968ZM8.75 17.5868V20.134C8.215 19.8981 7.59694 19.5704 6.98263 19.1261C5.36433 17.9554 3.75 15.9712 3.75 12.5434C3.75 9.758 6.00801 7.5 8.79338 7.5H13.7066C16.3929 7.5 18.5888 9.60025 18.7415 12.2483C18.7387 12.3036 18.7351 12.3586 18.7308 12.4134C18.5954 14.1537 17.7521 15.6954 16.4887 16.7508C15.6912 17.2791 14.7348 17.5868 13.7066 17.5868H8.75ZM17.2343 17.7559C16.8061 18.1067 16.3387 18.4112 15.8396 18.6621C16.534 19.5211 17.5963 20.0694 18.7849 20.0694H21.8753V22.0701C22.3432 21.8848 22.8718 21.6348 23.3954 21.3041C24.8747 20.3703 26.2503 18.8528 26.2503 16.2847C26.2503 14.1945 24.5558 12.5 22.4655 12.5H19.9999C19.9999 12.5144 20 12.5289 20 12.5434C20 14.7119 18.9033 16.6242 17.2343 17.7559Z" fill="#333333"/>
</svg>
