<svg width="30" height="30" viewBox="0 0 30 30" fill="none" xmlns="http://www.w3.org/2000/svg">
<path fill-rule="evenodd" clip-rule="evenodd" d="M14.9999 4.375C10.9109 4.375 7.59613 7.45306 7.59613 11.25H6.25C6.25 6.76269 10.1675 3.125 14.9999 3.125C19.8324 3.125 23.7499 6.76269 23.7499 11.25C23.7499 14.0632 22.2096 16.5421 19.8725 17.9996C18.2775 18.9942 17.0191 20.3172 17.0191 21.8196V21.875C17.0191 24.6364 14.6084 26.875 11.6346 26.875C8.66075 26.875 6.25 24.6364 6.25 21.875V20.625H7.59613V21.875C7.59613 23.9461 9.40419 25.625 11.6346 25.625C13.8649 25.625 15.673 23.9461 15.673 21.875V21.8196C15.673 19.6587 17.4419 18.0096 19.122 16.9619C21.1026 15.7267 22.4037 13.6293 22.4037 11.25C22.4037 7.45306 19.0889 4.375 14.9999 4.375ZM11.9305 10.6372C12.17 9.57162 13.1577 8.75 14.375 8.75C15.7774 8.75 16.875 9.84044 16.875 11.1381H18.125C18.125 9.1075 16.4244 7.5 14.375 7.5C12.3256 7.5 10.625 9.1075 10.625 11.1381C10.625 12.1626 11.0242 12.9821 11.8868 13.4555C12.355 13.7125 12.6683 13.9309 12.8593 14.1062C12.9061 14.1492 12.9413 14.1857 12.9677 14.2157C12.8523 14.2702 12.6645 14.3322 12.3826 14.3861L12.6174 15.6139C13.0376 15.5335 13.4272 15.4139 13.723 15.2242C14.0316 15.0263 14.3267 14.6836 14.2867 14.1937C14.2526 13.777 13.9811 13.4392 13.7046 13.1854C13.4092 12.9142 12.9988 12.6399 12.4882 12.3597C12.2872 12.2494 12.1298 12.1026 12.0247 11.8946C12.4576 11.9232 12.9913 11.9896 13.5169 12.1334C14.1064 12.2947 14.6402 12.541 15.0189 12.8978C15.3741 13.2325 15.6183 13.6861 15.6249 14.3522C15.5441 15.2034 15.3424 15.7529 15.1122 16.109C14.8851 16.4602 14.6117 16.6527 14.328 16.7644C14.0331 16.8804 13.7076 16.9161 13.3801 16.9161C13.2174 16.9161 13.0617 16.9075 12.9111 16.8979L12.8538 16.8942C12.7287 16.886 12.5922 16.8771 12.4774 16.8771C11.8839 16.8771 11.5833 17.3367 11.4444 17.6067C11.3483 17.7936 11.2534 18.0489 11.172 18.2681C11.1375 18.3608 11.1054 18.4471 11.0766 18.519C10.9581 18.8154 10.8431 19.0318 10.7048 19.1743C10.5896 19.2929 10.4459 19.375 10.1946 19.375C9.86225 19.375 9.68981 19.3001 9.60219 19.2402C9.516 19.1812 9.462 19.1029 9.42619 19.0048C9.38794 18.9002 9.375 18.7835 9.375 18.6827C9.375 18.6346 9.37794 18.5955 9.38056 18.5708C9.38181 18.5586 9.38294 18.5504 9.3835 18.5467C9.38369 18.5455 9.38375 18.5448 9.38375 18.5448L9.3835 18.5467L9.38306 18.5489L9.38287 18.55C9.38281 18.5503 9.38262 18.5512 8.76781 18.4388C8.153 18.3264 8.15294 18.3267 8.15287 18.3271L8.15275 18.3278L8.1525 18.3293L8.15188 18.3327L8.15044 18.3415C8.14931 18.3481 8.14806 18.3562 8.14663 18.3659C8.14381 18.3852 8.1405 18.4105 8.13731 18.441C8.13094 18.5016 8.125 18.5846 8.125 18.6827C8.125 18.8747 8.14769 19.1482 8.25219 19.434C8.359 19.7262 8.55469 20.0382 8.89656 20.2719C9.23688 20.5047 9.67088 20.625 10.1946 20.625C10.7993 20.625 11.2619 20.3948 11.6016 20.0451C11.918 19.7192 12.1061 19.3112 12.2373 18.9831C12.2973 18.8331 12.3433 18.7082 12.3832 18.5995C12.4453 18.4307 12.4929 18.3012 12.5561 18.1781C12.5659 18.1591 12.5746 18.1432 12.5822 18.1301C12.6341 18.1326 12.6951 18.1366 12.7697 18.1414L12.8315 18.1454C12.9869 18.1552 13.1756 18.1661 13.3801 18.1661C13.7868 18.1661 14.2871 18.1238 14.7857 17.9276C15.2956 17.727 15.7834 17.3731 16.1619 16.7876C16.5347 16.2111 16.7809 15.442 16.8724 14.4364C16.8741 14.4176 16.875 14.3987 16.875 14.3797C16.875 13.3436 16.4791 12.5562 15.8761 11.9881C15.2917 11.4374 14.5414 11.1177 13.8468 10.9277C13.1466 10.7362 12.4563 10.6638 11.9479 10.6381C11.9421 10.6377 11.9363 10.6375 11.9305 10.6372ZM12.6202 18.0745C12.6202 18.0748 12.6183 18.0772 12.6145 18.0807C12.6183 18.076 12.6202 18.0742 12.6202 18.0745Z" fill="#333333"/>
</svg>
