<svg width="30" height="30" viewBox="0 0 30 30" fill="none" xmlns="http://www.w3.org/2000/svg">
<path d="M19.0022 3.17814C19.318 3.31739 19.4611 3.68632 19.3219 4.00216L18.75 3.75002C19.3219 4.00216 19.3219 4.00202 19.3219 4.00216L19.3216 4.00289L19.3184 4.01002L19.3091 4.03095C19.301 4.04919 19.289 4.0759 19.2733 4.11062C19.2419 4.18008 19.1957 4.28163 19.1355 4.41156C19.015 4.67139 18.8386 5.04492 18.6134 5.50249C18.1633 6.41709 17.5171 7.67015 16.7328 9.02347C15.1808 11.7014 13.0299 14.876 10.7362 16.5293L10.7351 16.5301C8.32461 18.26 7.85893 20.1564 8.24849 21.5233C8.64955 22.9308 9.99805 23.9828 11.6523 23.9828H11.9472C12.1386 23.3163 12.6372 22.6719 13.4859 22.2762C14.4476 21.8277 15.8107 21.7168 17.6413 22.1417C17.9776 22.2197 18.1869 22.5556 18.1088 22.8918C18.0308 23.228 17.6949 23.4373 17.3587 23.3593C15.6893 22.9718 14.6357 23.1192 14.0142 23.4091C13.6747 23.5673 13.4509 23.773 13.3106 23.9828H13.6704C15.2676 23.9828 16.5625 25.2777 16.5625 26.875H15.3125C15.3125 25.9681 14.5773 25.2328 13.6704 25.2328H11.6523C9.46186 25.2328 7.60643 23.8315 7.0463 21.8659C6.47468 19.86 7.29043 17.4638 10.0057 15.515C12.063 14.0319 14.1016 11.0706 15.6513 8.39665C16.4179 7.0739 17.0507 5.84694 17.4919 4.95055C17.7123 4.50261 17.8846 4.13789 18.0014 3.88585C18.0598 3.75984 18.1044 3.66204 18.1341 3.59614C18.149 3.56319 18.1602 3.53822 18.1676 3.52169L18.1757 3.50327L18.1781 3.49798C18.3174 3.18214 18.6863 3.03888 19.0022 3.17814Z" fill="#333333"/>
</svg>
