<svg width="97" height="45" viewBox="0 0 97 45" fill="none" xmlns="http://www.w3.org/2000/svg">
<path d="M59.75 11.7295L57.5625 14.2902C56.7348 13.5661 55.8094 12.9573 54.8125 12.4809C53.9633 12.169 53.063 12.013 52.1562 12.0209C51.2819 11.9743 50.4142 12.1938 49.6719 12.6495C49.3819 12.8174 49.1423 13.0577 48.9777 13.3458C48.813 13.634 48.7291 13.9599 48.7344 14.2902C48.7194 14.5019 48.7539 14.7141 48.8352 14.9107C48.9164 15.1073 49.0422 15.2832 49.2031 15.4249C49.5805 15.763 50.0364 16.0053 50.5312 16.1302C51.1406 16.2989 52.0937 16.5596 53.3125 16.8509C55.1656 17.1666 56.9319 17.8557 58.5 18.8749C59.0083 19.2771 59.4142 19.7898 59.6855 20.3728C59.9566 20.9556 60.0858 21.5926 60.0625 22.2329C60.0795 23.0581 59.9073 23.8768 59.5584 24.6278C59.2095 25.379 58.6928 26.0435 58.0469 26.5722C56.5152 27.7507 54.6 28.3446 52.6562 28.2436C51.1623 28.2698 49.6772 28.0148 48.2812 27.4922C46.8084 26.8378 45.4609 25.9405 44.2969 24.8396L46.5312 22.2789C47.47 23.1501 48.5205 23.8976 49.6562 24.5022C50.5973 24.9044 51.6141 25.1082 52.6406 25.1002C53.5655 25.1447 54.4817 24.9092 55.2656 24.4256C55.5763 24.2233 55.8295 23.947 56.0017 23.6226C56.1737 23.2979 56.2592 22.9359 56.25 22.5702C56.2534 22.3585 56.2122 22.1484 56.1289 21.9531C56.0455 21.7579 55.9219 21.5817 55.7656 21.4356C55.4523 21.1315 55.0731 20.9007 54.6562 20.7609C53.9167 20.5119 53.1595 20.3172 52.3906 20.1782L51.5156 19.9329C49.6805 19.6373 47.9383 18.9345 46.4219 17.8782C45.9538 17.4435 45.5881 16.9135 45.3506 16.3256C45.113 15.7375 45.0094 15.1057 45.0469 14.4742C45.0523 13.7162 45.2372 12.9697 45.587 12.2938C45.9369 11.6179 46.4419 11.0311 47.0625 10.5795C48.5447 9.50217 50.3606 8.96049 52.2031 9.04622C53.5591 9.01771 54.9091 9.23071 56.1875 9.67488C57.5028 10.1196 58.7141 10.8182 59.75 11.7295Z" fill="#415397"/>
<path d="M77.4375 9.27623V12.3429H71.7812V27.6762H68.0938V12.3429H62.4375V9.27623H77.4375Z" fill="#415397"/>
<path d="M92.7656 27.7071L87.1562 18.9517L84.2031 22.0184V27.7684H80.4844V9.36832H84.1719V17.6177L91.9844 9.36832H96.5156L89.6406 16.3911L96.9375 27.7071H92.7656Z" fill="#415397"/>
<path d="M7.12506 13.9531C7.12506 13.4931 7.26569 13.3551 7.73444 13.3551H12.9688C13.3594 13.3551 13.3594 13.3551 13.3594 12.9871V5.4584C13.3353 4.22454 13.754 3.02163 14.5424 2.06016C15.3308 1.09869 16.4386 0.439903 17.6719 0.199071C17.7475 0.174969 17.8208 0.144175 17.8906 0.107071C17.7977 0.091914 17.7025 0.091914 17.6094 0.107071C16.1053 0.0735391 14.6473 0.6183 13.5469 1.62507C11.9844 3.1584 10.4219 4.69173 8.85944 6.22507C7.29694 7.7584 5.65631 9.44507 4.17194 11.1011C3.07677 12.2631 2.18456 13.5945 1.53131 15.0417C1.218 15.6549 1.06244 16.334 1.07819 17.0197C1.15898 17.8798 1.51797 18.692 2.10272 19.3375C2.68745 19.983 3.46728 20.4282 4.32819 20.6077C5.22002 20.7101 6.11805 20.7511 7.01569 20.7304C7.18756 20.7304 7.18756 20.6231 7.18756 20.5004" fill="url(#paint0_linear_185_578)"/>
<path d="M21.8125 6.40893C21.8125 6.54693 21.9844 10.8249 21.9844 12.2356C21.9844 12.6189 21.9844 12.6189 22.3594 12.6189H30.1719C31.4064 12.631 32.5992 13.0598 33.5497 13.8333C34.5 14.6068 35.1502 15.6777 35.3906 16.8662C35.4147 16.9506 35.4459 17.0326 35.4844 17.1116H35.5781C35.585 17.0094 35.585 16.907 35.5781 16.8049C35.5602 15.2942 34.9372 13.8511 33.8438 12.7876C32.2812 11.2543 30.7187 9.72093 29.1562 8.18759C27.5937 6.65426 25.9219 5.12093 24.2344 3.58759C23.0339 2.46874 21.65 1.5564 20.1406 0.88893C19.4555 0.567997 18.6875 0.457765 17.9375 0.572688C17.1873 0.687613 16.4902 1.02233 15.9375 1.53293C15.0469 2.29959 14.1093 5.15159 14.8125 6.31693" fill="url(#paint1_linear_185_578)"/>
<path d="M14.2969 28.0447C14.2969 27.9067 14.125 23.6287 14.125 22.218C14.125 21.8347 14.125 21.8347 13.75 21.8347H5.9375C4.69648 21.8382 3.49245 21.4201 2.5298 20.6516C1.56714 19.8829 0.905172 18.8111 0.65625 17.618C0.632187 17.5337 0.600828 17.4517 0.5625 17.3727H0.578125C0.571172 17.4748 0.571172 17.5772 0.578125 17.6794C0.595984 19.19 1.21902 20.6332 2.3125 21.6967C3.875 23.23 5.4375 24.7634 7 26.2967C8.5625 27.83 10.2344 29.3634 11.9219 30.8967C13.1458 32.007 14.5575 32.8994 16.0937 33.534C16.7789 33.8549 17.5467 33.9652 18.2969 33.8502C19.0469 33.7353 19.7441 33.4006 20.2969 32.89C21.1875 32.1234 22.125 29.2714 21.4219 28.106" fill="url(#paint2_linear_185_578)"/>
<path d="M28.9219 20.4852C28.9219 20.9452 28.7812 21.0832 28.3125 21.0832H23.0781C22.6875 21.0832 22.6875 21.0832 22.6875 21.4512V28.9799C22.7117 30.2137 22.293 31.4166 21.5045 32.3782C20.7163 33.3396 19.6084 33.9985 18.375 34.2392C18.2994 34.2634 18.2263 34.2941 18.1563 34.3312C18.1563 34.3312 18.1563 34.3312 18.1563 34.4079H18.4375C19.9364 34.4088 21.3767 33.8369 22.4531 32.8132C24.0156 31.2799 25.5781 29.7465 27.1406 28.2132C28.7031 26.6799 30.2656 24.9932 31.8281 23.3372C32.9233 22.1752 33.8155 20.8438 34.4688 19.3965C34.782 18.7835 34.9377 18.1044 34.9219 17.4185C34.8498 16.5861 34.512 15.7972 33.9566 15.164C33.4011 14.5308 32.6562 14.0857 31.8281 13.8919C30.9305 13.799 30.0272 13.7683 29.125 13.7999C28.9531 13.7999 28.9531 13.9072 28.9531 14.0299" fill="url(#paint3_linear_185_578)"/>
<path d="M4.38898 39.9891V41.5785C4.38898 42.1829 4.36047 42.9162 4.0525 43.2127C3.96125 43.2968 3.80156 43.3863 3.64758 43.4142L3.71031 43.806C3.93273 43.806 4.15516 43.7164 4.29773 43.6269C4.83953 43.2687 4.87375 42.3565 4.87375 41.5394V40.3977H6.14555V43.7612H6.64742V39.9891H4.38898ZM9.49756 41.5897H8.00334V40.3977H9.58311V39.9891H7.50717V43.7612H9.66866V43.3527H8.00334V41.9927H9.49756V41.5897ZM10.2132 39.9891V41.2596C10.2132 42.1829 10.8406 42.3956 11.3482 42.3956C11.6847 42.3956 12.004 42.3117 12.2721 42.1606H12.2835V43.7612H12.7854V39.9891H12.2835V41.78C12.0839 41.9031 11.793 41.9927 11.525 41.9927C10.9832 41.9927 10.7094 41.7016 10.7094 41.1867V39.9891H10.2132ZM15.6352 41.5897H14.1409V40.3977H15.7206V39.9891H13.6447V43.7612H15.8062V43.3527H14.1409V41.9927H15.6352V41.5897ZM16.4517 39.9891V43.75C16.617 43.7724 16.8794 43.7948 17.2273 43.7948C17.752 43.7948 18.2709 43.6773 18.5847 43.3751C18.7842 43.1792 18.9041 42.9105 18.9041 42.558C18.9041 42.1158 18.7044 41.8192 18.4136 41.6345C18.1455 41.4611 17.7862 41.3827 17.4212 41.3827C17.2958 41.3827 17.0677 41.3939 16.9478 41.4106V40.3977H18.6075V39.9891H16.4517ZM16.9478 41.7857C17.0733 41.7745 17.2273 41.7633 17.3414 41.7633C17.6152 41.7633 17.8717 41.8192 18.0714 41.9536C18.2595 42.0822 18.385 42.2782 18.385 42.5692C18.385 42.8043 18.3052 42.9889 18.1741 43.1232C17.9858 43.3191 17.6722 43.4142 17.3642 43.4142C17.1931 43.4142 17.0619 43.4087 16.9478 43.3863V41.7857ZM19.5483 39.9891V43.7612H20.0445V41.9927H21.9037V43.7612H22.4056V39.9891H21.9037V41.5673H20.0445V39.9891H19.5483ZM24.8256 39.9276C23.7991 39.9276 23.0406 40.7111 23.0406 41.9088C23.0406 43.0505 23.7534 43.8228 24.7686 43.8228C25.7495 43.8228 26.5537 43.1344 26.5537 41.836C26.5537 40.7166 25.875 39.9276 24.8256 39.9276ZM24.8028 40.3249C25.6298 40.3249 26.0291 41.1084 26.0291 41.8583C26.0291 42.7147 25.5842 43.4254 24.7972 43.4254C24.0158 43.4254 23.5709 42.7035 23.5709 41.8976C23.5709 41.0693 23.9816 40.3249 24.8028 40.3249ZM26.9384 42.0655V42.4292H28.347V42.0655H26.9384ZM29.4286 39.9891V40.9462C29.4286 41.5954 29.3773 42.0991 29.2461 42.5356C29.1548 42.8322 29.0123 43.1065 28.8697 43.3639L28.5789 43.3751L28.6131 44.6679H29.0009L29.0352 43.7612H31.4589L31.4931 44.6679H31.8809L31.9152 43.3751L31.5788 43.3639V39.9891H29.4286ZM29.8906 40.392H31.0825V43.3582H29.383C29.497 43.1568 29.6169 42.905 29.6967 42.6419C29.8336 42.2165 29.8906 41.7073 29.8906 41.1029V40.392ZM32.5419 39.9891V43.7612H33.0723L34.2756 41.8864C34.538 41.4666 34.8003 41.03 34.9886 40.6159L35.0056 40.6215C34.9658 41.0972 34.96 41.5449 34.96 42.155V43.7612H35.4277V39.9891H34.9316L33.6883 41.9312C33.4088 42.3789 33.1692 42.7874 32.9753 43.1792L32.9639 43.1736C32.9981 42.6699 33.0095 42.1774 33.0095 41.5785V39.9891H32.5419ZM38.2803 42.5747L38.6909 43.7612H39.2214L37.9097 39.9891H37.3108L36.0048 43.7612H36.5181L36.9173 42.5747H38.2803ZM37.02 42.1941L37.3964 41.1029C37.4705 40.8733 37.5333 40.6439 37.5903 40.4201H37.6017C37.6587 40.6383 37.7158 40.8621 37.8013 41.1084L38.1777 42.1941H37.02ZM39.7878 39.9891V43.7612H40.2839V40.3977H41.8295V39.9891H39.7878ZM42.255 39.9891V43.7612H42.7512V41.9927H44.6105V43.7612H45.1123V39.9891H44.6105V41.5673H42.7512V39.9891H42.255ZM47.5323 39.9276C46.5058 39.9276 45.7473 40.7111 45.7473 41.9088C45.7473 43.0505 46.4602 43.8228 47.4753 43.8228C48.4563 43.8228 49.2605 43.1344 49.2605 41.836C49.2605 40.7166 48.5817 39.9276 47.5323 39.9276ZM47.5095 40.3249C48.3366 40.3249 48.7358 41.1084 48.7358 41.8583C48.7358 42.7147 48.2909 43.4254 47.5039 43.4254C46.7225 43.4254 46.2777 42.7035 46.2777 41.8976C46.2777 41.0693 46.6883 40.3249 47.5095 40.3249ZM52.4909 43.252C52.2914 43.3471 51.9834 43.4087 51.6811 43.4087C50.7458 43.4087 50.2041 42.8154 50.2041 41.8919C50.2041 40.9014 50.8028 40.336 51.7039 40.336C52.0233 40.336 52.2914 40.4032 52.4795 40.4927L52.5994 40.0955C52.4681 40.0283 52.1659 39.9276 51.6869 39.9276C50.4948 39.9276 49.6794 40.7278 49.6794 41.9088C49.6794 43.1456 50.4948 43.8172 51.5784 43.8172C52.0461 43.8172 52.4111 43.7276 52.5936 43.6381L52.4909 43.252ZM54.1462 43.7612H54.6481V40.4032H55.823V39.9891H52.977V40.4032H54.1462V43.7612ZM56.2511 39.9891V43.7612H56.7814L57.9848 41.8864C58.2472 41.4666 58.5095 41.03 58.6977 40.6159L58.7148 40.6215C58.6748 41.0972 58.6692 41.5449 58.6692 42.155V43.7612H59.1369V39.9891H58.6406L57.3973 41.9312C57.118 42.3789 56.8784 42.7874 56.6845 43.1792L56.6731 43.1736C56.7073 42.6699 56.7188 42.1774 56.7188 41.5785V39.9891H56.2511ZM59.943 39.9891V41.2596C59.943 42.1829 60.5703 42.3956 61.0778 42.3956C61.4144 42.3956 61.7337 42.3117 62.0017 42.1606H62.0131V43.7612H62.515V39.9891H62.0131V41.78C61.8136 41.9031 61.5227 41.9927 61.2547 41.9927C60.7128 41.9927 60.4391 41.7016 60.4391 41.1867V39.9891H59.943ZM65.3648 41.5897H63.8706V40.3977H65.4503V39.9891H63.3744V43.7612H65.5359V43.3527H63.8706V41.9927H65.3648V41.5897ZM68.765 43.252C68.5653 43.3471 68.2573 43.4087 67.9552 43.4087C67.0198 43.4087 66.478 42.8154 66.478 41.8919C66.478 40.9014 67.0769 40.336 67.978 40.336C68.2973 40.336 68.5653 40.4032 68.7536 40.4927L68.8733 40.0955C68.7422 40.0283 68.4398 39.9276 67.9608 39.9276C66.7689 39.9276 65.9533 40.7278 65.9533 41.9088C65.9533 43.1456 66.7689 43.8172 67.8525 43.8172C68.3202 43.8172 68.6852 43.7276 68.8677 43.6381L68.765 43.252ZM69.4897 39.9891V43.7612H69.9802V42.0319H70.1398C70.79 42.0319 71.0351 42.3732 71.212 42.8714C71.3147 43.168 71.423 43.5038 71.5598 43.7612H72.0959C71.9248 43.4254 71.8166 43.0784 71.6739 42.6923C71.4744 42.1829 71.2291 41.8024 70.5961 41.7185L72.0503 39.9891H71.4516L70.1341 41.6625H69.9802V39.9891H69.4897ZM72.5808 39.9891V43.7612H73.1111L74.3145 41.8864C74.5769 41.4666 74.8392 41.03 75.0273 40.6159L75.0445 40.6215C75.0045 41.0972 74.9989 41.5449 74.9989 42.155V43.7612H75.4666V39.9891H74.9703L73.727 41.9312C73.4477 42.3789 73.2081 42.7874 73.0142 43.1792L73.0028 43.1736C73.037 42.6699 73.0484 42.1774 73.0484 41.5785V39.9891H72.5808ZM76.3345 39.9891V43.7612H76.865L78.0683 41.8864C78.3306 41.4666 78.593 41.03 78.7812 40.6159L78.7983 40.6215C78.7584 41.0972 78.7527 41.5449 78.7527 42.155V43.7612H79.2203V39.9891H78.7242L77.4809 41.9312C77.2014 42.3789 76.9619 42.7874 76.768 43.1792L76.7566 43.1736C76.7908 42.6699 76.8022 42.1774 76.8022 41.5785V39.9891H76.3345ZM77.0475 39.2C77.0759 39.5694 77.2984 39.7988 77.7661 39.7988C78.2508 39.7988 78.4789 39.5694 78.5075 39.2H78.1253C78.1025 39.3846 78.0398 39.547 77.7775 39.547C77.5094 39.547 77.4523 39.3734 77.4295 39.2H77.0475ZM81.2969 39.9891V43.7612H83.9317L83.9659 44.6679H84.3595L84.3937 43.3751L84.0572 43.3639V39.9891H83.5553V43.3527H81.7931V39.9891H81.2969ZM87.0077 41.5897H85.5134V40.3977H87.0933V39.9891H85.0173V43.7612H87.1787V43.3527H85.5134V41.9927H87.0077V41.5897ZM87.8244 39.9891V43.7612H88.3205V41.9927H90.1797V43.7612H90.6816V39.9891H90.1797V41.5673H88.3205V39.9891H87.8244ZM92.2747 43.7612H92.7766V40.4032H93.9514V39.9891H91.1056V40.4032H92.2747V43.7612ZM94.3795 43.7612H94.8758V42.2501C94.9898 42.2782 95.1267 42.2837 95.275 42.2837C95.7597 42.2837 96.1875 42.1438 96.4498 41.8695C96.6438 41.6737 96.7464 41.4051 96.7464 41.0636C96.7464 40.7278 96.6209 40.4536 96.4098 40.2746C96.1817 40.0731 95.8225 39.9611 95.332 39.9611C94.9328 39.9611 94.6191 39.9947 94.3795 40.0338V43.7612ZM94.8758 40.3865C94.9613 40.3641 95.1267 40.3472 95.3434 40.3472C95.8909 40.3472 96.2502 40.588 96.2502 41.086C96.2502 41.6066 95.8852 41.8919 95.2864 41.8919C95.1209 41.8919 94.9841 41.8807 94.8758 41.8528V40.3865Z" fill="#415397"/>
<defs>
<linearGradient id="paint0_linear_185_578" x1="48.5742" y1="-0.111536" x2="48.5742" y2="44.5242" gradientUnits="userSpaceOnUse">
<stop stop-color="#3AB5B0"/>
<stop offset="0.24" stop-color="#3D99BE"/>
<stop offset="0.78" stop-color="#56317A"/>
</linearGradient>
<linearGradient id="paint1_linear_185_578" x1="0.544808" y1="22.3305" x2="96.9138" y2="22.3305" gradientUnits="userSpaceOnUse">
<stop offset="0.22" stop-color="#56317A"/>
<stop offset="0.76" stop-color="#3D99BE"/>
<stop offset="1" stop-color="#3AB5B0"/>
</linearGradient>
<linearGradient id="paint2_linear_185_578" x1="48.295" y1="44.6882" x2="48.295" y2="0.0957031" gradientUnits="userSpaceOnUse">
<stop offset="0.22" stop-color="#56317A"/>
<stop offset="0.76" stop-color="#3D99BE"/>
<stop offset="1" stop-color="#3AB5B0"/>
</linearGradient>
<linearGradient id="paint3_linear_185_578" x1="2723.15" y1="176.156" x2="3763.04" y2="176.156" gradientUnits="userSpaceOnUse">
<stop stop-color="#3AB5B0"/>
<stop offset="0.24" stop-color="#3D99BE"/>
<stop offset="0.78" stop-color="#56317A"/>
</linearGradient>
</defs>
</svg>
